<svg xmlns="http://www.w3.org/2000/svg" xmlns:xlink="http://www.w3.org/1999/xlink" width="1480pt" height="371pt" viewBox="0.00 0.00 1480.17 371.00">
<g id="graph0" class="graph" transform="scale(1 1) rotate(0) translate(4 367)">
<polygon fill="white" stroke="transparent" points="-4,4 -4,-367 1476.17,-367 1476.17,4 -4,4"/>
<g id="clust9" class="cluster">
<title>cluster_/home/xshandil/ben_shandilya/slowbeast/slowbeast/symexe/threads/iexecutor.py</title>
<polygon fill="none" stroke="black" points="0,-22 0,-99 319.22,-99 319.22,-22 0,-22"/>
<text text-anchor="middle" x="159.61" y="-82.4" font-family="Times,serif" font-size="14.00">${workspace}/slowbeast/symexe/threads/iexecutor.py</text>
</g>
<g id="clust10" class="cluster">
<title>cluster_/home/xshandil/ben_shandilya/slowbeast/slowbeast/symexe/iexecutor.py</title>
<polygon fill="none" stroke="black" points="339.22,-139 339.22,-216 662.28,-216 662.28,-139 339.22,-139"/>
<text text-anchor="middle" x="500.75" y="-199.4" font-family="Times,serif" font-size="14.00">${workspace}/slowbeast/symexe/iexecutor.py</text>
</g>
<g id="clust11" class="cluster">
<title>cluster_/home/xshandil/.vscode-server/extensions/ms-python.vscode-pylance-2024.3.1/dist/typeshed-fallback/stdlib/builtins.pyi</title>
<polygon fill="none" stroke="black" points="784.27,-8 784.27,-85 1472.17,-85 1472.17,-8 784.27,-8"/>
<text text-anchor="middle" x="1128.22" y="-68.4" font-family="Times,serif" font-size="14.00">/home/xshandil/.vscode-server/extensions/ms-python.vscode-pylance-2024.3.1/dist/typeshed-fallback/stdlib/builtins.pyi</text>
</g>
<g id="clust12" class="cluster">
<title>cluster_/home/xshandil/ben_shandilya/slowbeast/slowbeast/symexe/memorymodel.py</title>
<polygon fill="none" stroke="black" points="460.68,-54 460.68,-131 765.72,-131 765.72,-54 460.68,-54"/>
<text text-anchor="middle" x="613.2" y="-114.4" font-family="Times,serif" font-size="14.00">${workspace}/slowbeast/symexe/memorymodel.py</text>
</g>
<g id="clust13" class="cluster">
<title>cluster_/home/xshandil/ben_shandilya/slowbeast/slowbeast/core/iexecutor.py</title>
<polygon fill="none" stroke="black" points="485.1,-224 485.1,-355 741.3,-355 741.3,-224 485.1,-224"/>
<text text-anchor="middle" x="613.2" y="-338.4" font-family="Times,serif" font-size="14.00">${workspace}/slowbeast/core/iexecutor.py</text>
</g>
<g id="clust14" class="cluster">
<title>cluster_/home/xshandil/ben_shandilya/slowbeast/slowbeast/core/memorymodel.py</title>
<polygon fill="none" stroke="black" points="985.72,-158 985.72,-289 1271.73,-289 1271.73,-158 985.72,-158"/>
<text text-anchor="middle" x="1128.72" y="-272.4" font-family="Times,serif" font-size="14.00">${workspace}/slowbeast/core/memorymodel.py</text>
</g>
<!-- /home/xshandil/ben_shandilya/slowbeast/slowbeast/symexe/threads/iexecutor.py#IExecutor@12:6 -->
<g id="node1" class="node">
<title>/home/xshandil/ben_shandilya/slowbeast/slowbeast/symexe/threads/iexecutor.py#IExecutor@12:6</title>
<ellipse fill="none" stroke="black" cx="159.11" cy="-48" rx="49.22" ry="18"/>
<text text-anchor="middle" x="159.11" y="-43.8" font-family="Times,serif" font-size="14.00">IExecutor</text>
</g>
<!-- /home/xshandil/ben_shandilya/slowbeast/slowbeast/symexe/iexecutor.py#__init__@116:8 -->
<g id="node2" class="node">
<title>/home/xshandil/ben_shandilya/slowbeast/slowbeast/symexe/iexecutor.py#__init__@116:8</title>
<ellipse fill="none" stroke="black" cx="390.45" cy="-165" rx="43.46" ry="18"/>
<text text-anchor="middle" x="390.45" y="-160.8" font-family="Times,serif" font-size="14.00">__init__</text>
</g>
<!-- /home/xshandil/ben_shandilya/slowbeast/slowbeast/symexe/threads/iexecutor.py#IExecutor@12:6&#45;&gt;/home/xshandil/ben_shandilya/slowbeast/slowbeast/symexe/iexecutor.py#__init__@116:8 -->
<g id="edge1" class="edge">
<title>/home/xshandil/ben_shandilya/slowbeast/slowbeast/symexe/threads/iexecutor.py#IExecutor@12:6-&gt;/home/xshandil/ben_shandilya/slowbeast/slowbeast/symexe/iexecutor.py#__init__@116:8</title>
<path fill="none" stroke="black" d="M188.69,-62.58C230.37,-83.84 307.8,-123.35 353.35,-146.59"/>
<polygon fill="black" stroke="black" points="351.79,-149.72 362.29,-151.15 354.97,-143.48 351.79,-149.72"/>
</g>
<!-- /home/xshandil/.vscode&#45;server/extensions/ms&#45;python.vscode&#45;pylance&#45;2024.3.1/dist/typeshed&#45;fallback/stdlib/builtins.pyi#super@211:6 -->
<g id="node3" class="node">
<title>/home/xshandil/.vscode-server/extensions/ms-python.vscode-pylance-2024.3.1/dist/typeshed-fallback/stdlib/builtins.pyi#super@211:6</title>
<ellipse fill="none" stroke="black" cx="1128.22" cy="-34" rx="31.9" ry="18"/>
<text text-anchor="middle" x="1128.22" y="-29.8" font-family="Times,serif" font-size="14.00">super</text>
</g>
<!-- /home/xshandil/ben_shandilya/slowbeast/slowbeast/symexe/threads/iexecutor.py#IExecutor@12:6&#45;&gt;/home/xshandil/.vscode&#45;server/extensions/ms&#45;python.vscode&#45;pylance&#45;2024.3.1/dist/typeshed&#45;fallback/stdlib/builtins.pyi#super@211:6 -->
<g id="edge2" class="edge">
<title>/home/xshandil/ben_shandilya/slowbeast/slowbeast/symexe/threads/iexecutor.py#IExecutor@12:6-&gt;/home/xshandil/.vscode-server/extensions/ms-python.vscode-pylance-2024.3.1/dist/typeshed-fallback/stdlib/builtins.pyi#super@211:6</title>
<path fill="none" stroke="black" d="M204,-40.69C262.39,-31.37 368.94,-15.78 460.68,-10 697.54,4.91 982.39,-19.44 1086.55,-29.74"/>
<polygon fill="black" stroke="black" points="1086.33,-33.24 1096.63,-30.75 1087.03,-26.27 1086.33,-33.24"/>
</g>
<!-- /home/xshandil/ben_shandilya/slowbeast/slowbeast/symexe/iexecutor.py#__init__@116:8&#45;&gt;/home/xshandil/.vscode&#45;server/extensions/ms&#45;python.vscode&#45;pylance&#45;2024.3.1/dist/typeshed&#45;fallback/stdlib/builtins.pyi#super@211:6 -->
<g id="edge3" class="edge">
<title>/home/xshandil/ben_shandilya/slowbeast/slowbeast/symexe/iexecutor.py#__init__@116:8-&gt;/home/xshandil/.vscode-server/extensions/ms-python.vscode-pylance-2024.3.1/dist/typeshed-fallback/stdlib/builtins.pyi#super@211:6</title>
<path fill="none" stroke="black" d="M396.26,-147.07C404.48,-120.45 424.01,-71.31 460.68,-50 567.27,11.95 957.96,-18.12 1086.17,-29.96"/>
<polygon fill="black" stroke="black" points="1086.06,-33.47 1096.34,-30.91 1086.71,-26.5 1086.06,-33.47"/>
</g>
<!-- /home/xshandil/ben_shandilya/slowbeast/slowbeast/symexe/memorymodel.py#SymbolicMemoryModel@13:6 -->
<g id="node4" class="node">
<title>/home/xshandil/ben_shandilya/slowbeast/slowbeast/symexe/memorymodel.py#SymbolicMemoryModel@13:6</title>
<ellipse fill="none" stroke="black" cx="613.2" cy="-80" rx="106.54" ry="18"/>
<text text-anchor="middle" x="613.2" y="-75.8" font-family="Times,serif" font-size="14.00">SymbolicMemoryModel</text>
</g>
<!-- /home/xshandil/ben_shandilya/slowbeast/slowbeast/symexe/iexecutor.py#__init__@116:8&#45;&gt;/home/xshandil/ben_shandilya/slowbeast/slowbeast/symexe/memorymodel.py#SymbolicMemoryModel@13:6 -->
<g id="edge4" class="edge">
<title>/home/xshandil/ben_shandilya/slowbeast/slowbeast/symexe/iexecutor.py#__init__@116:8-&gt;/home/xshandil/ben_shandilya/slowbeast/slowbeast/symexe/memorymodel.py#SymbolicMemoryModel@13:6</title>
<path fill="none" stroke="black" d="M420.59,-151.9C432.89,-146.5 447.41,-140.28 460.68,-135 491.98,-122.55 527.35,-109.64 556.04,-99.47"/>
<polygon fill="black" stroke="black" points="557.24,-102.76 565.5,-96.13 554.91,-96.16 557.24,-102.76"/>
</g>
<!-- /home/xshandil/ben_shandilya/slowbeast/slowbeast/core/iexecutor.py#__init__@29:8 -->
<g id="node5" class="node">
<title>/home/xshandil/ben_shandilya/slowbeast/slowbeast/core/iexecutor.py#__init__@29:8</title>
<ellipse fill="none" stroke="black" cx="613.2" cy="-304" rx="43.46" ry="18"/>
<text text-anchor="middle" x="613.2" y="-299.8" font-family="Times,serif" font-size="14.00">__init__</text>
</g>
<!-- /home/xshandil/ben_shandilya/slowbeast/slowbeast/symexe/iexecutor.py#__init__@116:8&#45;&gt;/home/xshandil/ben_shandilya/slowbeast/slowbeast/core/iexecutor.py#__init__@29:8 -->
<g id="edge5" class="edge">
<title>/home/xshandil/ben_shandilya/slowbeast/slowbeast/symexe/iexecutor.py#__init__@116:8-&gt;/home/xshandil/ben_shandilya/slowbeast/slowbeast/core/iexecutor.py#__init__@29:8</title>
<path fill="none" stroke="black" d="M397.28,-183.06C406.47,-208.41 426.83,-254.01 460.68,-277 489.57,-296.63 528.46,-303.25 559.61,-305.03"/>
<polygon fill="black" stroke="black" points="559.71,-308.54 569.85,-305.46 560.01,-301.55 559.71,-308.54"/>
</g>
<!-- /home/xshandil/ben_shandilya/slowbeast/slowbeast/symexe/iexecutor.py#SEStats@68:6 -->
<g id="node6" class="node">
<title>/home/xshandil/ben_shandilya/slowbeast/slowbeast/symexe/iexecutor.py#SEStats@68:6</title>
<ellipse fill="none" stroke="black" cx="613.2" cy="-165" rx="41.16" ry="18"/>
<text text-anchor="middle" x="613.2" y="-160.8" font-family="Times,serif" font-size="14.00">SEStats</text>
</g>
<!-- /home/xshandil/ben_shandilya/slowbeast/slowbeast/symexe/iexecutor.py#__init__@116:8&#45;&gt;/home/xshandil/ben_shandilya/slowbeast/slowbeast/symexe/iexecutor.py#SEStats@68:6 -->
<g id="edge6" class="edge">
<title>/home/xshandil/ben_shandilya/slowbeast/slowbeast/symexe/iexecutor.py#__init__@116:8-&gt;/home/xshandil/ben_shandilya/slowbeast/slowbeast/symexe/iexecutor.py#SEStats@68:6</title>
<path fill="none" stroke="black" d="M433.75,-165C470.29,-165 523.17,-165 561.88,-165"/>
<polygon fill="black" stroke="black" points="561.9,-168.5 571.9,-165 561.9,-161.5 561.9,-168.5"/>
</g>
<!-- /home/xshandil/ben_shandilya/slowbeast/slowbeast/core/iexecutor.py#get_options@60:8 -->
<g id="node7" class="node">
<title>/home/xshandil/ben_shandilya/slowbeast/slowbeast/core/iexecutor.py#get_options@60:8</title>
<ellipse fill="none" stroke="black" cx="613.2" cy="-250" rx="56.2" ry="18"/>
<text text-anchor="middle" x="613.2" y="-245.8" font-family="Times,serif" font-size="14.00">get_options</text>
</g>
<!-- /home/xshandil/ben_shandilya/slowbeast/slowbeast/symexe/iexecutor.py#__init__@116:8&#45;&gt;/home/xshandil/ben_shandilya/slowbeast/slowbeast/core/iexecutor.py#get_options@60:8 -->
<g id="edge7" class="edge">
<title>/home/xshandil/ben_shandilya/slowbeast/slowbeast/symexe/iexecutor.py#__init__@116:8-&gt;/home/xshandil/ben_shandilya/slowbeast/slowbeast/core/iexecutor.py#get_options@60:8</title>
<path fill="none" stroke="black" d="M407.81,-181.78C420.95,-194.25 440.48,-210.65 460.68,-220 488.1,-232.69 520.73,-240.02 548.67,-244.25"/>
<polygon fill="black" stroke="black" points="548.35,-247.74 558.74,-245.67 549.33,-240.81 548.35,-247.74"/>
</g>
<!-- /home/xshandil/ben_shandilya/slowbeast/slowbeast/symexe/memorymodel.py#SymbolicMemoryModel@13:6&#45;&gt;/home/xshandil/.vscode&#45;server/extensions/ms&#45;python.vscode&#45;pylance&#45;2024.3.1/dist/typeshed&#45;fallback/stdlib/builtins.pyi#super@211:6 -->
<g id="edge8" class="edge">
<title>/home/xshandil/ben_shandilya/slowbeast/slowbeast/symexe/memorymodel.py#SymbolicMemoryModel@13:6-&gt;/home/xshandil/.vscode-server/extensions/ms-python.vscode-pylance-2024.3.1/dist/typeshed-fallback/stdlib/builtins.pyi#super@211:6</title>
<path fill="none" stroke="black" d="M707.7,-71.62C820.27,-61.52 1004.37,-45.02 1086.01,-37.7"/>
<polygon fill="black" stroke="black" points="1086.72,-41.15 1096.37,-36.77 1086.1,-34.17 1086.72,-41.15"/>
</g>
<!-- /home/xshandil/ben_shandilya/slowbeast/slowbeast/core/memorymodel.py#__init__@16:8 -->
<g id="node8" class="node">
<title>/home/xshandil/ben_shandilya/slowbeast/slowbeast/core/memorymodel.py#__init__@16:8</title>
<ellipse fill="none" stroke="black" cx="1128.22" cy="-184" rx="43.46" ry="18"/>
<text text-anchor="middle" x="1128.22" y="-179.8" font-family="Times,serif" font-size="14.00">__init__</text>
</g>
<!-- /home/xshandil/ben_shandilya/slowbeast/slowbeast/symexe/memorymodel.py#SymbolicMemoryModel@13:6&#45;&gt;/home/xshandil/ben_shandilya/slowbeast/slowbeast/core/memorymodel.py#__init__@16:8 -->
<g id="edge9" class="edge">
<title>/home/xshandil/ben_shandilya/slowbeast/slowbeast/symexe/memorymodel.py#SymbolicMemoryModel@13:6-&gt;/home/xshandil/ben_shandilya/slowbeast/slowbeast/core/memorymodel.py#__init__@16:8</title>
<path fill="none" stroke="black" d="M682.06,-93.76C787.32,-115.09 987.35,-155.64 1079.08,-174.24"/>
<polygon fill="black" stroke="black" points="1078.43,-177.68 1088.92,-176.24 1079.82,-170.82 1078.43,-177.68"/>
</g>
<!-- /home/xshandil/ben_shandilya/slowbeast/slowbeast/core/memorymodel.py#MemoryModel@10:6 -->
<g id="node9" class="node">
<title>/home/xshandil/ben_shandilya/slowbeast/slowbeast/core/memorymodel.py#MemoryModel@10:6</title>
<ellipse fill="none" stroke="black" cx="1128.22" cy="-238" rx="69.51" ry="18"/>
<text text-anchor="middle" x="1128.22" y="-233.8" font-family="Times,serif" font-size="14.00">MemoryModel</text>
</g>
<!-- /home/xshandil/ben_shandilya/slowbeast/slowbeast/core/iexecutor.py#__init__@29:8&#45;&gt;/home/xshandil/ben_shandilya/slowbeast/slowbeast/core/memorymodel.py#MemoryModel@10:6 -->
<g id="edge10" class="edge">
<title>/home/xshandil/ben_shandilya/slowbeast/slowbeast/core/iexecutor.py#__init__@29:8-&gt;/home/xshandil/ben_shandilya/slowbeast/slowbeast/core/memorymodel.py#MemoryModel@10:6</title>
<path fill="none" stroke="black" d="M654.88,-298.77C741.76,-287.59 946.34,-261.27 1055.56,-247.22"/>
<polygon fill="black" stroke="black" points="1056.03,-250.69 1065.51,-245.94 1055.14,-243.74 1056.03,-250.69"/>
</g>
</g>
</svg>